# xmcd CD database file
#
# Track frame offsets:
#	150
#	67286
#	133054
#	183879
#	235828
#	280413
#
# Disc length: 4448 seconds
#
# Revision: 0
# Processed by: cddbd v1.5.2PL0 Copyright (c) Steve Scherf et al.
# Submitted via: CDex 1.70beta2
#
DISCID=5a115e06
DTITLE=All-Star Live Jam Session - Modern Jazz Modern Mainstream CD 100
DYEAR=2008
DGENRE=Jazz
TTITLE0=What Is This Thing 
TTITLE1=Move
TTITLE2=You Go To My Head
TTITLE3=My Funny Valentine - Don't Worry 'Bout Me - Bess You Is My Woman Now - It Might As Well Be Spring
TTITLE4=Lover Come Back To Me
TTITLE5=I'll Remember April
EXTD=YEAR: 2008
EXTT0=
EXTT1=
EXTT2=
EXTT3=
EXTT4=
EXTT5=
PLAYORDER=
